<svg xmlns="http://www.w3.org/2000/svg" viewBox="0 0 972 240" width="100%" shape-rendering="crispEdges">
<g transform="translate(24, 24)">
  <rect x="0" y="0" width="13" height="25" fill="#ff33a1" />
  <rect x="12" y="0" width="13" height="25" fill="#fd34a3" />
  <rect x="108" y="0" width="13" height="25" fill="#f044b7" />
  <rect x="120" y="0" width="13" height="25" fill="#ee46b9" />
  <rect x="132" y="0" width="13" height="25" fill="#ed48bc" />
  <rect x="144" y="0" width="13" height="25" fill="#eb4abe" />
  <rect x="156" y="0" width="13" height="25" fill="#ea4bc1" />
  <rect x="168" y="0" width="13" height="25" fill="#e84dc3" />
  <rect x="180" y="0" width="13" height="25" fill="#e64fc6" />
  <rect x="192" y="0" width="13" height="25" fill="#e551c8" />
  <rect x="264" y="0" width="13" height="25" fill="#db5dd7" />
  <rect x="276" y="0" width="13" height="25" fill="#da5fd9" />
  <rect x="288" y="0" width="13" height="25" fill="#d861dc" />
  <rect x="348" y="0" width="13" height="25" fill="#d06ae8" />
  <rect x="360" y="0" width="13" height="25" fill="#ce6ceb" />
  <rect x="372" y="0" width="13" height="25" fill="#cd6eed" />
  <rect x="384" y="0" width="13" height="25" fill="#cb70f0" />
  <rect x="396" y="0" width="13" height="25" fill="#ca72f2" />
  <rect x="408" y="0" width="13" height="25" fill="#c874f5" />
  <rect x="420" y="0" width="13" height="25" fill="#c676f7" />
  <rect x="432" y="0" width="13" height="25" fill="#c578fa" />
  <rect x="480" y="0" width="13" height="25" fill="#ba80ff" />
  <rect x="492" y="0" width="13" height="25" fill="#b682ff" />
  <rect x="504" y="0" width="13" height="25" fill="#b284ff" />
  <rect x="516" y="0" width="13" height="25" fill="#af87ff" />
  <rect x="528" y="0" width="13" height="25" fill="#ab89ff" />
  <rect x="540" y="0" width="13" height="25" fill="#a78bff" />
  <rect x="576" y="0" width="13" height="25" fill="#9c92ff" />
  <rect x="588" y="0" width="13" height="25" fill="#9894ff" />
  <rect x="660" y="0" width="13" height="25" fill="#82a2ff" />
  <rect x="672" y="0" width="13" height="25" fill="#7ea4ff" />
  <rect x="732" y="0" width="13" height="25" fill="#6bafff" />
  <rect x="744" y="0" width="13" height="25" fill="#67b1ff" />
  <rect x="756" y="0" width="13" height="25" fill="#63b3ff" />
  <rect x="816" y="0" width="13" height="25" fill="#51bfff" />
  <rect x="828" y="0" width="13" height="25" fill="#4dc1ff" />
  <rect x="888" y="0" width="13" height="25" fill="#3accff" />
  <rect x="900" y="0" width="13" height="25" fill="#36ceff" />
  <rect x="12" y="24" width="13" height="25" fill="#fd34a3" />
  <rect x="24" y="24" width="13" height="25" fill="#fb36a5" />
  <rect x="108" y="24" width="13" height="25" fill="#f044b7" />
  <rect x="120" y="24" width="13" height="25" fill="#ee46b9" />
  <rect x="192" y="24" width="13" height="25" fill="#e551c8" />
  <rect x="204" y="24" width="13" height="25" fill="#e353cb" />
  <rect x="252" y="24" width="13" height="25" fill="#dd5bd4" />
  <rect x="264" y="24" width="13" height="25" fill="#db5dd7" />
  <rect x="288" y="24" width="13" height="25" fill="#d861dc" />
  <rect x="300" y="24" width="13" height="25" fill="#d663de" />
  <rect x="348" y="24" width="13" height="25" fill="#d06ae8" />
  <rect x="360" y="24" width="13" height="25" fill="#ce6ceb" />
  <rect x="432" y="24" width="13" height="25" fill="#c578fa" />
  <rect x="444" y="24" width="13" height="25" fill="#c37afc" />
  <rect x="468" y="24" width="13" height="25" fill="#be7eff" />
  <rect x="480" y="24" width="13" height="25" fill="#ba80ff" />
  <rect x="540" y="24" width="13" height="25" fill="#a78bff" />
  <rect x="552" y="24" width="13" height="25" fill="#a38dff" />
  <rect x="576" y="24" width="13" height="25" fill="#9c92ff" />
  <rect x="588" y="24" width="13" height="25" fill="#9894ff" />
  <rect x="660" y="24" width="13" height="25" fill="#82a2ff" />
  <rect x="672" y="24" width="13" height="25" fill="#7ea4ff" />
  <rect x="720" y="24" width="13" height="25" fill="#6fadff" />
  <rect x="732" y="24" width="13" height="25" fill="#6bafff" />
  <rect x="756" y="24" width="13" height="25" fill="#63b3ff" />
  <rect x="768" y="24" width="13" height="25" fill="#60b6ff" />
  <rect x="816" y="24" width="13" height="25" fill="#51bfff" />
  <rect x="828" y="24" width="13" height="25" fill="#4dc1ff" />
  <rect x="840" y="24" width="13" height="25" fill="#49c3ff" />
  <rect x="888" y="24" width="13" height="25" fill="#3accff" />
  <rect x="900" y="24" width="13" height="25" fill="#36ceff" />
  <rect x="24" y="48" width="13" height="25" fill="#fb36a5" />
  <rect x="36" y="48" width="13" height="25" fill="#fa38a8" />
  <rect x="108" y="48" width="13" height="25" fill="#f044b7" />
  <rect x="120" y="48" width="13" height="25" fill="#ee46b9" />
  <rect x="192" y="48" width="13" height="25" fill="#e551c8" />
  <rect x="204" y="48" width="13" height="25" fill="#e353cb" />
  <rect x="240" y="48" width="13" height="25" fill="#de59d2" />
  <rect x="252" y="48" width="13" height="25" fill="#dd5bd4" />
  <rect x="300" y="48" width="13" height="25" fill="#d663de" />
  <rect x="312" y="48" width="13" height="25" fill="#d564e1" />
  <rect x="348" y="48" width="13" height="25" fill="#d06ae8" />
  <rect x="360" y="48" width="13" height="25" fill="#ce6ceb" />
  <rect x="432" y="48" width="13" height="25" fill="#c578fa" />
  <rect x="444" y="48" width="13" height="25" fill="#c37afc" />
  <rect x="468" y="48" width="13" height="25" fill="#be7eff" />
  <rect x="480" y="48" width="13" height="25" fill="#ba80ff" />
  <rect x="576" y="48" width="13" height="25" fill="#9c92ff" />
  <rect x="588" y="48" width="13" height="25" fill="#9894ff" />
  <rect x="660" y="48" width="13" height="25" fill="#82a2ff" />
  <rect x="672" y="48" width="13" height="25" fill="#7ea4ff" />
  <rect x="708" y="48" width="13" height="25" fill="#72aaff" />
  <rect x="720" y="48" width="13" height="25" fill="#6fadff" />
  <rect x="768" y="48" width="13" height="25" fill="#60b6ff" />
  <rect x="780" y="48" width="13" height="25" fill="#5cb8ff" />
  <rect x="816" y="48" width="13" height="25" fill="#51bfff" />
  <rect x="828" y="48" width="13" height="25" fill="#4dc1ff" />
  <rect x="840" y="48" width="13" height="25" fill="#49c3ff" />
  <rect x="852" y="48" width="13" height="25" fill="#45c5ff" />
  <rect x="888" y="48" width="13" height="25" fill="#3accff" />
  <rect x="900" y="48" width="13" height="25" fill="#36ceff" />
  <rect x="36" y="72" width="13" height="25" fill="#fa38a8" />
  <rect x="48" y="72" width="13" height="25" fill="#f83aaa" />
  <rect x="108" y="72" width="13" height="25" fill="#f044b7" />
  <rect x="120" y="72" width="13" height="25" fill="#ee46b9" />
  <rect x="192" y="72" width="13" height="25" fill="#e551c8" />
  <rect x="204" y="72" width="13" height="25" fill="#e353cb" />
  <rect x="228" y="72" width="13" height="25" fill="#e057d0" />
  <rect x="240" y="72" width="13" height="25" fill="#de59d2" />
  <rect x="312" y="72" width="13" height="25" fill="#d564e1" />
  <rect x="324" y="72" width="13" height="25" fill="#d366e3" />
  <rect x="348" y="72" width="13" height="25" fill="#d06ae8" />
  <rect x="360" y="72" width="13" height="25" fill="#ce6ceb" />
  <rect x="372" y="72" width="13" height="25" fill="#cd6eed" />
  <rect x="384" y="72" width="13" height="25" fill="#cb70f0" />
  <rect x="396" y="72" width="13" height="25" fill="#ca72f2" />
  <rect x="408" y="72" width="13" height="25" fill="#c874f5" />
  <rect x="420" y="72" width="13" height="25" fill="#c676f7" />
  <rect x="432" y="72" width="13" height="25" fill="#c578fa" />
  <rect x="480" y="72" width="13" height="25" fill="#ba80ff" />
  <rect x="492" y="72" width="13" height="25" fill="#b682ff" />
  <rect x="504" y="72" width="13" height="25" fill="#b284ff" />
  <rect x="516" y="72" width="13" height="25" fill="#af87ff" />
  <rect x="528" y="72" width="13" height="25" fill="#ab89ff" />
  <rect x="540" y="72" width="13" height="25" fill="#a78bff" />
  <rect x="576" y="72" width="13" height="25" fill="#9c92ff" />
  <rect x="588" y="72" width="13" height="25" fill="#9894ff" />
  <rect x="600" y="72" width="13" height="25" fill="#9496ff" />
  <rect x="612" y="72" width="13" height="25" fill="#9199ff" />
  <rect x="624" y="72" width="13" height="25" fill="#8d9bff" />
  <rect x="636" y="72" width="13" height="25" fill="#899dff" />
  <rect x="648" y="72" width="13" height="25" fill="#859fff" />
  <rect x="660" y="72" width="13" height="25" fill="#82a2ff" />
  <rect x="672" y="72" width="13" height="25" fill="#7ea4ff" />
  <rect x="696" y="72" width="13" height="25" fill="#76a8ff" />
  <rect x="708" y="72" width="13" height="25" fill="#72aaff" />
  <rect x="780" y="72" width="13" height="25" fill="#5cb8ff" />
  <rect x="792" y="72" width="13" height="25" fill="#58baff" />
  <rect x="816" y="72" width="13" height="25" fill="#51bfff" />
  <rect x="828" y="72" width="13" height="25" fill="#4dc1ff" />
  <rect x="852" y="72" width="13" height="25" fill="#45c5ff" />
  <rect x="864" y="72" width="13" height="25" fill="#42c8ff" />
  <rect x="888" y="72" width="13" height="25" fill="#3accff" />
  <rect x="900" y="72" width="13" height="25" fill="#36ceff" />
  <rect x="24" y="96" width="13" height="25" fill="#fb36a5" />
  <rect x="36" y="96" width="13" height="25" fill="#fa38a8" />
  <rect x="108" y="96" width="13" height="25" fill="#f044b7" />
  <rect x="120" y="96" width="13" height="25" fill="#ee46b9" />
  <rect x="192" y="96" width="13" height="25" fill="#e551c8" />
  <rect x="204" y="96" width="13" height="25" fill="#e353cb" />
  <rect x="228" y="96" width="13" height="25" fill="#e057d0" />
  <rect x="240" y="96" width="13" height="25" fill="#de59d2" />
  <rect x="252" y="96" width="13" height="25" fill="#dd5bd4" />
  <rect x="264" y="96" width="13" height="25" fill="#db5dd7" />
  <rect x="276" y="96" width="13" height="25" fill="#da5fd9" />
  <rect x="288" y="96" width="13" height="25" fill="#d861dc" />
  <rect x="300" y="96" width="13" height="25" fill="#d663de" />
  <rect x="312" y="96" width="13" height="25" fill="#d564e1" />
  <rect x="324" y="96" width="13" height="25" fill="#d366e3" />
  <rect x="348" y="96" width="13" height="25" fill="#d06ae8" />
  <rect x="360" y="96" width="13" height="25" fill="#ce6ceb" />
  <rect x="408" y="96" width="13" height="25" fill="#c874f5" />
  <rect x="420" y="96" width="13" height="25" fill="#c676f7" />
  <rect x="540" y="96" width="13" height="25" fill="#a78bff" />
  <rect x="552" y="96" width="13" height="25" fill="#a38dff" />
  <rect x="576" y="96" width="13" height="25" fill="#9c92ff" />
  <rect x="588" y="96" width="13" height="25" fill="#9894ff" />
  <rect x="660" y="96" width="13" height="25" fill="#82a2ff" />
  <rect x="672" y="96" width="13" height="25" fill="#7ea4ff" />
  <rect x="696" y="96" width="13" height="25" fill="#76a8ff" />
  <rect x="708" y="96" width="13" height="25" fill="#72aaff" />
  <rect x="720" y="96" width="13" height="25" fill="#6fadff" />
  <rect x="732" y="96" width="13" height="25" fill="#6bafff" />
  <rect x="744" y="96" width="13" height="25" fill="#67b1ff" />
  <rect x="756" y="96" width="13" height="25" fill="#63b3ff" />
  <rect x="768" y="96" width="13" height="25" fill="#60b6ff" />
  <rect x="780" y="96" width="13" height="25" fill="#5cb8ff" />
  <rect x="792" y="96" width="13" height="25" fill="#58baff" />
  <rect x="816" y="96" width="13" height="25" fill="#51bfff" />
  <rect x="828" y="96" width="13" height="25" fill="#4dc1ff" />
  <rect x="864" y="96" width="13" height="25" fill="#42c8ff" />
  <rect x="876" y="96" width="13" height="25" fill="#3ecaff" />
  <rect x="888" y="96" width="13" height="25" fill="#3accff" />
  <rect x="900" y="96" width="13" height="25" fill="#36ceff" />
  <rect x="12" y="120" width="13" height="25" fill="#fd34a3" />
  <rect x="24" y="120" width="13" height="25" fill="#fb36a5" />
  <rect x="108" y="120" width="13" height="25" fill="#f044b7" />
  <rect x="120" y="120" width="13" height="25" fill="#ee46b9" />
  <rect x="192" y="120" width="13" height="25" fill="#e551c8" />
  <rect x="204" y="120" width="13" height="25" fill="#e353cb" />
  <rect x="228" y="120" width="13" height="25" fill="#e057d0" />
  <rect x="240" y="120" width="13" height="25" fill="#de59d2" />
  <rect x="312" y="120" width="13" height="25" fill="#d564e1" />
  <rect x="324" y="120" width="13" height="25" fill="#d366e3" />
  <rect x="348" y="120" width="13" height="25" fill="#d06ae8" />
  <rect x="360" y="120" width="13" height="25" fill="#ce6ceb" />
  <rect x="420" y="120" width="13" height="25" fill="#c676f7" />
  <rect x="432" y="120" width="13" height="25" fill="#c578fa" />
  <rect x="468" y="120" width="13" height="25" fill="#be7eff" />
  <rect x="480" y="120" width="13" height="25" fill="#ba80ff" />
  <rect x="540" y="120" width="13" height="25" fill="#a78bff" />
  <rect x="552" y="120" width="13" height="25" fill="#a38dff" />
  <rect x="576" y="120" width="13" height="25" fill="#9c92ff" />
  <rect x="588" y="120" width="13" height="25" fill="#9894ff" />
  <rect x="660" y="120" width="13" height="25" fill="#82a2ff" />
  <rect x="672" y="120" width="13" height="25" fill="#7ea4ff" />
  <rect x="696" y="120" width="13" height="25" fill="#76a8ff" />
  <rect x="708" y="120" width="13" height="25" fill="#72aaff" />
  <rect x="780" y="120" width="13" height="25" fill="#5cb8ff" />
  <rect x="792" y="120" width="13" height="25" fill="#58baff" />
  <rect x="816" y="120" width="13" height="25" fill="#51bfff" />
  <rect x="828" y="120" width="13" height="25" fill="#4dc1ff" />
  <rect x="876" y="120" width="13" height="25" fill="#3ecaff" />
  <rect x="888" y="120" width="13" height="25" fill="#3accff" />
  <rect x="900" y="120" width="13" height="25" fill="#36ceff" />
  <rect x="0" y="144" width="13" height="25" fill="#ff33a1" />
  <rect x="12" y="144" width="13" height="25" fill="#fd34a3" />
  <rect x="108" y="144" width="13" height="25" fill="#f044b7" />
  <rect x="120" y="144" width="13" height="25" fill="#ee46b9" />
  <rect x="132" y="144" width="13" height="25" fill="#ed48bc" />
  <rect x="144" y="144" width="13" height="25" fill="#eb4abe" />
  <rect x="156" y="144" width="13" height="25" fill="#ea4bc1" />
  <rect x="168" y="144" width="13" height="25" fill="#e84dc3" />
  <rect x="180" y="144" width="13" height="25" fill="#e64fc6" />
  <rect x="192" y="144" width="13" height="25" fill="#e551c8" />
  <rect x="228" y="144" width="13" height="25" fill="#e057d0" />
  <rect x="240" y="144" width="13" height="25" fill="#de59d2" />
  <rect x="312" y="144" width="13" height="25" fill="#d564e1" />
  <rect x="324" y="144" width="13" height="25" fill="#d366e3" />
  <rect x="348" y="144" width="13" height="25" fill="#d06ae8" />
  <rect x="360" y="144" width="13" height="25" fill="#ce6ceb" />
  <rect x="432" y="144" width="13" height="25" fill="#c578fa" />
  <rect x="444" y="144" width="13" height="25" fill="#c37afc" />
  <rect x="480" y="144" width="13" height="25" fill="#ba80ff" />
  <rect x="492" y="144" width="13" height="25" fill="#b682ff" />
  <rect x="504" y="144" width="13" height="25" fill="#b284ff" />
  <rect x="516" y="144" width="13" height="25" fill="#af87ff" />
  <rect x="528" y="144" width="13" height="25" fill="#ab89ff" />
  <rect x="540" y="144" width="13" height="25" fill="#a78bff" />
  <rect x="576" y="144" width="13" height="25" fill="#9c92ff" />
  <rect x="588" y="144" width="13" height="25" fill="#9894ff" />
  <rect x="660" y="144" width="13" height="25" fill="#82a2ff" />
  <rect x="672" y="144" width="13" height="25" fill="#7ea4ff" />
  <rect x="696" y="144" width="13" height="25" fill="#76a8ff" />
  <rect x="708" y="144" width="13" height="25" fill="#72aaff" />
  <rect x="780" y="144" width="13" height="25" fill="#5cb8ff" />
  <rect x="792" y="144" width="13" height="25" fill="#58baff" />
  <rect x="816" y="144" width="13" height="25" fill="#51bfff" />
  <rect x="828" y="144" width="13" height="25" fill="#4dc1ff" />
  <rect x="888" y="144" width="13" height="25" fill="#3accff" />
  <rect x="900" y="144" width="13" height="25" fill="#36ceff" />
</g>
</svg>
